<?xml version="1.0" standalone="no"?>
<!DOCTYPE svg PUBLIC "-//W3C//DTD SVG 20010904//EN"
 "http://www.w3.org/TR/2001/REC-SVG-20010904/DTD/svg10.dtd">
<svg version="1.0" xmlns="http://www.w3.org/2000/svg"
 width="300.000000pt" height="300.000000pt" viewBox="0 0 300.000000 300.000000"
 preserveAspectRatio="xMidYMid meet">
<metadata>
Created by potrace 1.14, written by Peter Selinger 2001-2017
</metadata>
<g transform="translate(0.000000,300.000000) scale(0.100000,-0.100000)"
fill="#000000" stroke="none">
<path d="M2535 2700 l-70 -6 54 -4 c51 -5 54 -6 38 -22 -28 -27 1 -28 134 -2
68 13 138 23 154 24 17 0 37 5 45 10 17 11 -234 11 -355 0z"/>
<path d="M2523 2585 c-11 -8 -23 -11 -27 -8 -33 33 -324 -34 -471 -109 -44
-22 -149 -87 -232 -144 -84 -58 -153 -100 -153 -95 0 5 7 11 15 15 11 4 14 16
12 41 -3 25 2 44 17 63 14 19 15 23 3 13 -31 -25 -17 6 15 33 17 14 26 26 20
26 -7 0 -121 -107 -254 -238 -267 -262 -401 -388 -524 -493 -66 -56 -88 -69
-115 -69 -22 0 -86 26 -183 76 -82 41 -156 72 -164 69 -8 -3 -23 2 -33 11 -11
10 -19 15 -19 13 0 -13 169 -324 223 -411 76 -123 182 -233 297 -309 91 -60
150 -93 150 -84 0 4 -18 25 -39 48 -53 57 -120 141 -170 212 -88 125 -57 169
345 486 477 376 822 606 1173 780 84 42 149 79 144 82 -5 4 -19 0 -30 -8z
m-2013 -840 c7 -8 8 -15 2 -15 -5 0 -15 7 -22 15 -7 8 -8 15 -2 15 5 0 15 -7
22 -15z"/>
<path d="M2690 2274 c-69 -30 -145 -63 -170 -73 -25 -11 -125 -57 -223 -105
-149 -72 -182 -84 -199 -75 -11 6 -40 9 -63 7 -34 -2 -41 0 -33 9 6 7 7 13 4
13 -19 0 -338 -178 -511 -284 -209 -130 -585 -391 -585 -407 0 -23 239 -111
445 -163 259 -65 602 -111 721 -97 79 9 141 46 229 136 132 134 286 390 408
676 53 125 120 309 114 315 -2 2 -38 -33 -79 -78 -127 -140 -182 -195 -205
-207 -30 -15 -38 -14 -23 4 11 13 10 14 -6 9 -32 -12 -37 -16 -24 -24 8 -5 8
-9 -3 -13 -12 -4 -15 0 -12 15 4 18 0 20 -35 16 -21 -2 -36 0 -34 4 3 5 -16 8
-43 8 -35 0 -44 3 -33 10 8 5 11 10 7 10 -14 0 -319 -167 -513 -281 -51 -30
-164 -97 -252 -149 -89 -52 -160 -96 -158 -98 2 -1 30 9 62 24 33 14 185 80
339 147 401 172 423 182 499 216 l69 31 -6 -30 c-10 -45 -112 -245 -168 -326
-66 -95 -145 -169 -216 -202 -115 -53 -364 -40 -657 34 -54 14 -101 23 -103
20 -3 -3 14 -10 37 -16 53 -14 88 -43 42 -34 -16 3 -64 18 -107 33 -75 27 -77
28 -45 35 18 3 103 53 189 110 337 223 727 446 1256 718 127 65 226 118 220
117 -5 0 -66 -25 -135 -55z"/>
<path d="M2034 2064 c-18 -14 -18 -15 4 -4 12 6 22 13 22 15 0 8 -5 6 -26 -11z"/>
<path d="M2093 2038 c11 -10 24 -18 31 -17 6 0 5 3 -3 6 -11 5 -11 7 0 15 11
7 9 8 -5 4 -10 -4 -24 -3 -30 1 -7 5 -3 0 7 -9z"/>
<path d="M20 2033 c0 -25 70 -252 95 -308 32 -75 69 -114 165 -177 74 -49 278
-153 285 -146 2 2 -34 46 -81 98 -48 52 -156 177 -241 278 -85 100 -156 182
-159 182 -3 0 7 -20 22 -45 14 -25 24 -48 22 -50 -2 -3 -24 32 -47 78 -45 85
-61 109 -61 90z"/>
<path d="M488 672 l-3 -82 28 0 c20 0 27 5 27 20 0 17 7 20 45 20 38 0 45 -3
45 -20 0 -15 7 -20 25 -20 27 0 26 -4 25 120 0 13 -3 27 -8 31 -4 4 -46 9 -94
11 l-87 3 -3 -83z m140 21 c-2 -13 -15 -19 -46 -21 -37 -3 -42 -1 -42 17 0 18
6 21 46 21 38 0 45 -3 42 -17z"/>
<path d="M798 753 l-88 -4 0 -79 0 -80 90 0 c83 0 90 1 90 20 0 18 -7 20 -65
20 -37 0 -65 4 -65 10 0 6 27 10 60 10 53 0 60 2 60 20 0 18 -7 20 -60 20 -33
0 -60 4 -60 10 0 6 28 10 65 10 63 0 65 1 65 25 0 14 -1 24 -2 23 -2 -1 -42
-4 -90 -5z"/>
<path d="M1153 752 c-21 -3 -23 -9 -23 -63 0 -93 6 -99 100 -99 100 0 110 8
110 96 l0 64 -30 0 -30 0 0 -61 0 -60 -47 3 -48 3 -5 60 c-5 55 -7 60 -27 57z"/>
<path d="M1364 751 c-2 -2 -4 -40 -4 -83 l0 -78 89 0 c49 0 96 3 105 6 18 7
22 59 6 69 -7 4 -7 13 0 26 7 13 7 25 0 38 -8 17 -23 20 -101 23 -50 2 -93 1
-95 -1z m146 -51 c0 -5 -22 -10 -50 -10 -27 0 -50 5 -50 10 0 6 23 10 50 10
28 0 50 -4 50 -10z m-6 -46 c33 -13 14 -24 -39 -24 -51 0 -65 7 -48 23 8 9 66
9 87 1z"/>
<path d="M1623 752 c-22 -3 -23 -8 -23 -83 l0 -79 80 0 c73 0 80 2 80 20 0 18
-7 20 -55 20 l-54 0 -3 63 c-3 58 -4 62 -25 59z"/>
<path d="M1779 751 c-1 -3 -2 -41 -3 -83 l-1 -78 28 0 27 0 0 79 c0 76 -1 79
-25 83 -14 3 -26 2 -26 -1z"/>
<path d="M1905 753 c-11 -3 -26 -10 -32 -15 -17 -13 -17 -120 -1 -136 7 -7 44
-12 95 -12 80 0 84 1 93 26 14 35 14 34 -20 34 -16 0 -30 -5 -30 -11 0 -6 -19
-9 -47 -7 -48 3 -48 3 -48 38 0 35 0 35 48 38 28 2 47 -1 47 -7 0 -6 11 -11
25 -11 36 0 36 46 -1 60 -26 10 -93 12 -129 3z"/>
<path d="M2205 753 c-11 -3 -26 -10 -32 -15 -17 -13 -17 -120 -1 -136 8 -8 45
-12 100 -12 76 0 89 2 98 19 16 30 13 116 -5 131 -16 13 -127 22 -160 13z
m121 -58 c4 -8 3 -27 0 -41 -6 -23 -10 -25 -59 -22 -46 3 -52 6 -55 26 -6 43
4 52 58 52 36 0 52 -4 56 -15z"/>
<path d="M2490 751 l-85 -6 0 -75 c0 -74 0 -75 28 -78 23 -3 27 0 27 22 0 25
2 26 60 26 53 0 60 2 60 20 0 20 -4 21 -87 22 -21 0 -33 6 -33 14 0 10 16 14
60 14 57 0 60 1 60 25 0 14 -1 24 -2 23 -2 -1 -41 -4 -88 -7z"/>
<path d="M920 670 c0 -79 0 -80 25 -80 18 0 25 5 25 20 0 18 7 20 58 20 67 0
82 11 82 60 0 53 -13 60 -107 60 l-83 0 0 -80z m138 23 c-2 -13 -15 -19 -46
-21 -37 -3 -42 -1 -42 17 0 18 6 21 46 21 38 0 45 -3 42 -17z"/>
<path d="M885 443 c-11 -3 -26 -10 -32 -15 -17 -13 -17 -120 -1 -136 19 -19
163 -16 182 4 22 22 21 74 -1 74 -16 0 -15 1 1 13 22 16 12 45 -21 58 -25 9
-93 10 -128 2z m107 -58 c-2 -5 -13 -9 -26 -7 -17 2 -25 -3 -29 -17 -4 -18 0
-21 24 -21 16 0 29 -5 29 -11 0 -6 -19 -9 -47 -7 -48 3 -48 3 -51 41 l-3 38
53 -3 c29 -2 52 -7 50 -13z"/>
<path d="M1304 436 c-4 -10 -1 -96 5 -148 1 -5 13 -8 27 -8 24 0 25 3 24 43
-3 65 -2 65 31 10 39 -68 58 -68 95 0 l29 52 3 -52 c3 -49 5 -53 28 -53 25 0
25 1 22 82 -3 81 -4 83 -29 85 -33 2 -41 -4 -74 -56 l-27 -44 -24 39 c-13 21
-25 42 -26 45 -6 13 -79 18 -84 5z"/>
<path d="M1600 364 l0 -84 90 0 c83 0 90 1 90 20 0 18 -7 20 -65 20 -37 0 -65
4 -65 10 0 6 27 10 60 10 53 0 60 2 60 20 0 18 -7 20 -60 20 -33 0 -60 4 -60
10 0 6 27 10 60 10 45 0 62 4 67 15 3 9 4 17 2 19 -2 2 -43 6 -91 9 l-88 5 0
-84z"/>
<path d="M1807 443 c-3 -7 -2 -115 2 -150 0 -7 12 -13 26 -13 18 0 25 5 25 20
0 17 7 20 45 20 38 0 45 -3 45 -20 0 -15 7 -20 24 -20 24 0 25 1 23 77 -2 78
-2 78 -32 84 -43 9 -153 10 -158 2z m143 -58 c0 -14 -24 -23 -67 -23 -16 -1
-23 5 -23 19 0 16 7 19 45 19 33 0 45 -4 45 -15z"/>
<path d="M2060 442 c-21 -7 -25 -14 -25 -47 0 -45 14 -52 98 -54 63 -1 61 -21
-3 -21 -27 0 -50 4 -50 9 0 5 -11 9 -26 9 -21 0 -25 -4 -22 -27 3 -25 5 -26
86 -29 93 -3 112 5 112 47 0 39 -17 51 -71 51 -52 0 -79 7 -79 21 0 12 87 11
95 -1 9 -14 55 -12 55 3 -1 31 -20 41 -82 43 -35 2 -74 0 -88 -4z"/>
<path d="M1106 378 c-52 -93 -53 -98 -22 -98 15 0 29 7 32 15 4 11 21 15 55
15 35 0 51 -4 55 -15 4 -9 19 -15 36 -15 35 0 35 3 -18 98 -32 57 -38 62 -69
62 -31 0 -37 -5 -69 -62z m72 -26 c-27 -5 -32 2 -18 29 l13 22 13 -24 c11 -22
11 -24 -8 -27z"/>
</g>
</svg>
